<svg width="543" height="362" viewBox="0 0 543 362" fill="none" xmlns="http://www.w3.org/2000/svg">
<rect width="543" height="362" rx="15" fill="white"/>
<line x1="28" y1="122.7" x2="515" y2="122.7" stroke="black" stroke-opacity="0.3" stroke-width="0.6"/>
<line x1="28" y1="155.7" x2="515" y2="155.7" stroke="black" stroke-opacity="0.3" stroke-width="0.6"/>
<line x1="28" y1="187.7" x2="515" y2="187.7" stroke="black" stroke-opacity="0.3" stroke-width="0.6"/>
<line x1="28" y1="219.7" x2="515" y2="219.7" stroke="black" stroke-opacity="0.3" stroke-width="0.6"/>
<line x1="28" y1="251.7" x2="515" y2="251.7" stroke="black" stroke-opacity="0.3" stroke-width="0.6"/>
<rect width="543" height="22" fill="#262626"/>
<rect y="22" width="543" height="22" fill="#D9D9D9"/>
<rect x="29" y="104" width="193" height="6" rx="3" fill="#242424"/>
<rect x="29" y="104" width="193" height="6" rx="3" fill="#242424"/>
<rect x="29" y="136" width="250" height="6" rx="3" fill="#242424"/>
<rect x="29" y="200" width="120" height="6" rx="3" fill="#242424"/>
<rect x="159" y="200" width="120" height="6" rx="3" fill="#242424"/>
<rect x="29" y="232" width="193" height="6" rx="3" fill="#242424"/>
<rect x="29" y="264" width="91" height="6" rx="3" fill="#242424"/>
<rect x="373" y="104" width="25" height="6" rx="3" fill="#FFEC8B"/>
<rect x="479" y="104" width="25" height="6" rx="3" fill="#242424"/>
<rect x="464" y="136" width="40" height="6" rx="3" fill="#242424"/>
<rect x="474" y="168" width="30" height="6" rx="3" fill="#242424"/>
<rect x="479" y="200" width="25" height="6" rx="3" fill="#242424"/>
<rect x="474" y="264" width="30" height="6" rx="3" fill="#242424"/>
<rect x="129" y="264" width="30" height="6" rx="3" fill="#242424"/>
<rect x="487" y="232" width="17" height="6" rx="3" fill="#242424"/>
<rect x="373" y="168" width="15" height="6" rx="3" fill="#FFEC8B"/>
<rect x="373" y="136" width="25" height="6" rx="3" fill="#7FE959"/>
<rect x="373" y="200" width="25" height="6" rx="3" fill="#7FE959"/>
<rect x="373" y="232" width="20" height="6" rx="3" fill="#7FE959"/>
<rect x="373" y="264" width="25" height="6" rx="3" fill="#7FE959"/>
<line x1="28" y1="281.7" x2="515" y2="281.7" stroke="black" stroke-opacity="0.3" stroke-width="0.6"/>
<rect x="29" y="294" width="136" height="6" rx="3" fill="#242424"/>
<rect x="467" y="294" width="37" height="6" rx="3" fill="#242424"/>
<rect x="373" y="294" width="20" height="6" rx="3" fill="#ED5E5E"/>
<rect x="29" y="168" width="107" height="6" rx="3" fill="#242424"/>
<path d="M32.78 90L30.72 86.93V90H28.5V82.92H30.72V85.9L32.75 82.92H35.26L32.82 86.31L35.42 90H32.78ZM38.2688 84.69V85.56H40.4688V87.23H38.2688V88.23H40.7688V90H36.0488V82.92H40.7688V84.69H38.2688ZM48.4055 82.92L45.8655 87.85V90H43.6455V87.85L41.1055 82.92H43.6455L44.7755 85.43L45.9055 82.92H48.4055ZM59.1102 82.92L57.4902 90H54.7302L53.9102 85.98L53.0902 90H50.3302L48.7102 82.92H51.1002L51.7402 87.38L52.7002 82.92H55.1202L56.0802 87.38L56.7202 82.92H59.1102ZM63.3563 90.07C62.6896 90.07 62.0763 89.9133 61.5163 89.6C60.9629 89.2867 60.5229 88.8533 60.1963 88.3C59.8696 87.7467 59.7063 87.1233 59.7063 86.43C59.7063 85.7367 59.8696 85.1133 60.1963 84.56C60.5229 84.0067 60.9629 83.5767 61.5163 83.27C62.0763 82.9567 62.6896 82.8 63.3563 82.8C64.0229 82.8 64.6329 82.9567 65.1863 83.27C65.7396 83.5767 66.1763 84.0067 66.4963 84.56C66.8229 85.1133 66.9863 85.7367 66.9863 86.43C66.9863 87.1233 66.8229 87.7467 66.4963 88.3C66.1763 88.8533 65.7363 89.2867 65.1763 89.6C64.6229 89.9133 64.0163 90.07 63.3563 90.07ZM63.3563 88C63.7963 88 64.1363 87.86 64.3763 87.58C64.6163 87.2933 64.7363 86.91 64.7363 86.43C64.7363 85.9433 64.6163 85.56 64.3763 85.28C64.1363 84.9933 63.7963 84.85 63.3563 84.85C62.9096 84.85 62.5663 84.9933 62.3263 85.28C62.0863 85.56 61.9663 85.9433 61.9663 86.43C61.9663 86.91 62.0863 87.2933 62.3263 87.58C62.5663 87.86 62.9096 88 63.3563 88ZM71.3471 90L70.0171 87.46H70.0071V90H67.7871V82.92H71.0871C71.6604 82.92 72.1504 83.0233 72.5571 83.23C72.9638 83.43 73.2671 83.7067 73.4671 84.06C73.6738 84.4067 73.7771 84.8 73.7771 85.24C73.7771 85.7133 73.6438 86.1333 73.3771 86.5C73.1171 86.8667 72.7404 87.13 72.2471 87.29L73.7871 90H71.3471ZM70.0071 85.98H70.8871C71.1004 85.98 71.2604 85.9333 71.3671 85.84C71.4738 85.74 71.5271 85.5867 71.5271 85.38C71.5271 85.1933 71.4704 85.0467 71.3571 84.94C71.2504 84.8333 71.0938 84.78 70.8871 84.78H70.0071V85.98ZM77.4363 82.92C78.1763 82.92 78.823 83.07 79.3763 83.37C79.9363 83.67 80.3663 84.0867 80.6663 84.62C80.9663 85.1533 81.1163 85.76 81.1163 86.44C81.1163 87.1133 80.9663 87.72 80.6663 88.26C80.3663 88.8 79.9363 89.2267 79.3763 89.54C78.823 89.8467 78.1763 90 77.4363 90H74.4863V82.92H77.4363ZM77.2363 88.02C77.7363 88.02 78.133 87.8833 78.4263 87.61C78.7197 87.3367 78.8663 86.9467 78.8663 86.44C78.8663 85.9333 78.7197 85.5433 78.4263 85.27C78.133 84.9967 77.7363 84.86 77.2363 84.86H76.7063V88.02H77.2363Z" fill="black"/>
<path d="M377.78 90L375.72 86.93V90H373.5V82.92H375.72V85.9L377.75 82.92H380.26L377.82 86.31L380.42 90H377.78ZM383.999 82.92C384.739 82.92 385.385 83.07 385.939 83.37C386.499 83.67 386.929 84.0867 387.229 84.62C387.529 85.1533 387.679 85.76 387.679 86.44C387.679 87.1133 387.529 87.72 387.229 88.26C386.929 88.8 386.499 89.2267 385.939 89.54C385.385 89.8467 384.739 90 383.999 90H381.049V82.92H383.999ZM383.799 88.02C384.299 88.02 384.695 87.8833 384.989 87.61C385.282 87.3367 385.429 86.9467 385.429 86.44C385.429 85.9333 385.282 85.5433 384.989 85.27C384.695 84.9967 384.299 84.86 383.799 84.86H383.269V88.02H383.799Z" fill="black"/>
<path d="M468.63 82.92L466.25 90H463.38L461 82.92H463.36L464.82 87.79L466.27 82.92H468.63ZM472.577 90.07C471.91 90.07 471.297 89.9133 470.737 89.6C470.184 89.2867 469.744 88.8533 469.417 88.3C469.09 87.7467 468.927 87.1233 468.927 86.43C468.927 85.7367 469.09 85.1133 469.417 84.56C469.744 84.0067 470.184 83.5767 470.737 83.27C471.297 82.9567 471.91 82.8 472.577 82.8C473.244 82.8 473.854 82.9567 474.407 83.27C474.96 83.5767 475.397 84.0067 475.717 84.56C476.044 85.1133 476.207 85.7367 476.207 86.43C476.207 87.1233 476.044 87.7467 475.717 88.3C475.397 88.8533 474.957 89.2867 474.397 89.6C473.844 89.9133 473.237 90.07 472.577 90.07ZM472.577 88C473.017 88 473.357 87.86 473.597 87.58C473.837 87.2933 473.957 86.91 473.957 86.43C473.957 85.9433 473.837 85.56 473.597 85.28C473.357 84.9933 473.017 84.85 472.577 84.85C472.13 84.85 471.787 84.9933 471.547 85.28C471.307 85.56 471.187 85.9433 471.187 86.43C471.187 86.91 471.307 87.2933 471.547 87.58C471.787 87.86 472.13 88 472.577 88ZM479.228 88.32H481.368V90H477.008V82.92H479.228V88.32ZM484.236 82.92V86.91C484.236 87.2367 484.306 87.4967 484.446 87.69C484.593 87.8767 484.826 87.97 485.146 87.97C485.466 87.97 485.703 87.8767 485.856 87.69C486.01 87.4967 486.086 87.2367 486.086 86.91V82.92H488.296V86.91C488.296 87.5833 488.156 88.16 487.876 88.64C487.596 89.1133 487.213 89.47 486.726 89.71C486.24 89.95 485.696 90.07 485.096 90.07C484.496 90.07 483.963 89.95 483.496 89.71C483.036 89.47 482.676 89.1133 482.416 88.64C482.156 88.1667 482.026 87.59 482.026 86.91V82.92H484.236ZM497.764 82.92V90H495.554V86.47L494.464 90H492.564L491.474 86.47V90H489.254V82.92H491.974L493.534 87.17L495.054 82.92H497.764ZM500.986 84.69V85.56H503.186V87.23H500.986V88.23H503.486V90H498.766V82.92H503.486V84.69H500.986Z" fill="black"/>
<circle cx="20.5" cy="11.5" r="4.5" fill="#ED5E5E"/>
<circle cx="33.5" cy="11.5" r="4.5" fill="#FFEC8B"/>
<circle cx="46.5" cy="11.5" r="4.5" fill="#7FE959"/>
</svg>
